<svg width="150" height="149" viewBox="0 0 150 149" fill="none" xmlns="http://www.w3.org/2000/svg">
<path d="M59.5158 30.7783C92.0493 30.7783 118.469 57.1925 118.469 89.7311C118.469 122.27 92.0543 148.684 59.5158 148.684C26.9822 148.684 0.562988 122.27 0.562988 89.7311C0.562988 57.1925 26.9772 30.7783 59.5158 30.7783Z" fill="url(#paint0_linear_95_7456)"/>
<g opacity="0.45">
<path d="M82.544 4.60278H82.5391C48.2479 4.60278 20.4495 32.4012 20.4495 66.6924V66.6974C20.4495 100.989 48.2479 128.787 82.5391 128.787H82.544C116.835 128.787 144.634 100.989 144.634 66.6974V66.6924C144.634 32.4012 116.835 4.60278 82.544 4.60278Z" fill="#96EBFF"/>
</g>
<g style="mix-blend-mode:soft-light" opacity="0.5">
<path style="mix-blend-mode:soft-light" d="M82.544 4.60278H82.5391C48.2479 4.60278 20.4495 32.4012 20.4495 66.6924V66.6974C20.4495 100.989 48.2479 128.787 82.5391 128.787H82.544C116.835 128.787 144.634 100.989 144.634 66.6974V66.6924C144.634 32.4012 116.835 4.60278 82.544 4.60278Z" fill="url(#paint1_linear_95_7456)"/>
</g>
<g style="mix-blend-mode:screen" opacity="0.5">
<path style="mix-blend-mode:screen" d="M82.5391 6.25078C115.869 6.25078 142.986 33.3671 142.986 66.6973C142.986 100.028 115.869 127.144 82.5391 127.144C49.2088 127.144 22.0926 100.028 22.0926 66.6973C22.0926 33.3671 49.2088 6.25078 82.5391 6.25078ZM82.5391 4.60767C48.2479 4.60767 20.4495 32.4061 20.4495 66.6973C20.4495 100.988 48.2479 128.787 82.5391 128.787C116.83 128.787 144.629 100.988 144.629 66.6973C144.629 32.4061 116.83 4.60767 82.5391 4.60767Z" fill="url(#paint2_linear_95_7456)"/>
</g>
<path d="M102.416 66.7077C102.416 77.6866 93.5179 86.5843 82.539 86.5843C71.56 86.5843 62.6624 77.6866 62.6624 66.7077C62.6624 55.7287 71.56 46.8311 82.539 46.8311C93.5179 46.8311 102.416 55.7287 102.416 66.7077Z" fill="white"/>
<path d="M82.5392 113.327C56.832 113.327 35.9197 92.4146 35.9197 66.7074C35.9197 41.0002 56.832 20.0879 82.5392 20.0879C108.246 20.0879 129.159 41.0002 129.159 66.7074C129.159 92.4146 108.246 113.327 82.5392 113.327ZM82.5392 28.3134C61.3679 28.3134 44.1452 45.5362 44.1452 66.7074C44.1452 87.8786 61.3679 105.101 82.5392 105.101C103.71 105.101 120.933 87.8786 120.933 66.7074C120.933 45.5362 103.71 28.3134 82.5392 28.3134Z" fill="white"/>
<path d="M148.816 15.2683C148.224 13.9239 146.869 13.0874 145.406 13.1521L135.646 13.5953L136.09 3.83622C136.154 2.37235 135.313 1.01803 133.973 0.425519C132.634 -0.166996 131.066 0.126772 130.03 1.16243L114.575 16.6176C113.908 17.2848 113.534 18.186 113.534 19.1271V29.887L79.6264 63.7948C78.0181 65.403 78.0181 68.0071 79.6264 69.6104C80.428 70.412 81.4836 70.8153 82.5342 70.8153C83.5848 70.8153 84.6403 70.412 85.442 69.6104L119.35 35.7026H130.11C131.051 35.7026 131.952 35.3291 132.619 34.6619L148.074 19.2068C149.11 18.1711 149.404 16.6027 148.811 15.2633L148.816 15.2683Z" fill="url(#paint3_linear_95_7456)"/>
<defs>
<linearGradient id="paint0_linear_95_7456" x1="17.8306" y1="48.0459" x2="101.201" y2="131.416" gradientUnits="userSpaceOnUse">
<stop stop-color="#0CF1FF"/>
<stop offset="1" stop-color="#009ADD"/>
</linearGradient>
<linearGradient id="paint1_linear_95_7456" x1="38.6332" y1="22.7915" x2="126.445" y2="110.603" gradientUnits="userSpaceOnUse">
<stop stop-color="white"/>
<stop offset="0.15" stop-color="#F6FCFD"/>
<stop offset="0.4" stop-color="#DDF5FA"/>
<stop offset="0.71" stop-color="#B6EAF6"/>
<stop offset="1" stop-color="#8CDEF1"/>
</linearGradient>
<linearGradient id="paint2_linear_95_7456" x1="20.4495" y1="66.6973" x2="144.629" y2="66.6973" gradientUnits="userSpaceOnUse">
<stop stop-color="#A3E0FF"/>
<stop offset="0.08" stop-color="#97D7FA"/>
<stop offset="0.51" stop-color="#5EAEE5"/>
<stop offset="0.83" stop-color="#3B95D8"/>
<stop offset="1" stop-color="#2E8CD4"/>
</linearGradient>
<linearGradient id="paint3_linear_95_7456" x1="120.012" y1="52.7511" x2="105.169" y2="26.6505" gradientUnits="userSpaceOnUse">
<stop stop-color="#009ADD"/>
<stop offset="1" stop-color="#0CF1FF"/>
</linearGradient>
</defs>
</svg>
