<svg width="140" height="111" viewBox="0 0 140 111" fill="none" xmlns="http://www.w3.org/2000/svg">
<path d="M104.645 0.412598H7.05175C3.43891 0.412598 0.510132 3.33022 0.510132 6.92928V82.4313C0.510132 86.0303 3.43891 88.948 7.05175 88.948H104.645C108.258 88.948 111.187 86.0303 111.187 82.4313V6.92928C111.187 3.33022 108.258 0.412598 104.645 0.412598Z" fill="url(#paint0_linear_95_7428)"/>
<g opacity="0.45">
<path d="M138.648 62.5698L107.35 23.9115C105.148 21.1897 100.986 21.1897 98.7808 23.9115L67.4825 62.5698C64.5799 66.1556 67.1419 71.4928 71.767 71.4928H83.6068V105.094C83.6068 108.123 86.0698 110.577 89.111 110.577H117.02C120.061 110.577 122.524 108.123 122.524 105.094V71.4928H134.364C138.989 71.4928 141.551 66.1556 138.648 62.5698Z" fill="#96EBFF"/>
</g>
<path d="M19.2678 67.414C18.5471 67.414 17.8185 67.1773 17.2166 66.6921C15.8108 65.5639 15.5931 63.5087 16.7256 62.1123L38.2472 35.5564C38.7936 34.8858 39.5816 34.4559 40.4449 34.3651C41.3121 34.2744 42.1713 34.5269 42.8445 35.0712L58.6561 47.793L82.0982 18.8229C83.2307 17.4225 85.2898 17.1977 86.6955 18.3298C88.1012 19.458 88.323 21.5093 87.1905 22.9097L61.6972 54.4201C61.1547 55.0947 60.3627 55.5246 59.4995 55.6154C58.6323 55.7061 57.773 55.4536 57.0959 54.9092L41.2804 42.1875L21.8139 66.2109C21.1685 67.0077 20.2221 67.4219 19.2678 67.4219V67.414Z" fill="white"/>
<g style="mix-blend-mode:soft-light" opacity="0.5">
<path style="mix-blend-mode:soft-light" d="M138.648 62.5698L107.35 23.9115C105.148 21.1897 100.986 21.1897 98.7808 23.9115L67.4825 62.5698C64.5799 66.1556 67.1419 71.4928 71.767 71.4928H83.6068V105.094C83.6068 108.123 86.0698 110.577 89.111 110.577H117.02C120.061 110.577 122.524 108.123 122.524 105.094V71.4928H134.364C138.989 71.4928 141.551 66.1556 138.648 62.5698Z" fill="url(#paint1_linear_95_7428)"/>
</g>
<g style="mix-blend-mode:screen" opacity="0.5">
<path style="mix-blend-mode:screen" d="M103.061 23.1697C104.337 23.1697 105.528 23.7377 106.328 24.7239L137.627 63.3822C138.668 64.6642 138.862 66.321 138.145 67.8082C137.433 69.2953 136.015 70.1829 134.36 70.1829H121.209V105.086C121.209 107.39 119.328 109.263 117.016 109.263H89.1071C86.7945 109.263 84.9136 107.39 84.9136 105.086V70.1829H71.7631C70.1079 70.1829 68.6942 69.2953 67.9775 67.8082C67.2647 66.321 67.4588 64.6642 68.4962 63.3822L99.7986 24.7278C100.598 23.7377 101.79 23.1736 103.065 23.1736L103.061 23.1697ZM103.061 21.8679C101.47 21.8679 99.8778 22.5464 98.7769 23.9073L67.4786 62.5656C64.576 66.1514 67.138 71.4886 71.7631 71.4886H83.6029V105.09C83.6029 108.119 86.0659 110.573 89.1071 110.573H117.016C120.057 110.573 122.52 108.119 122.52 105.09V71.4886H134.36C138.985 71.4886 141.547 66.1514 138.644 62.5656L107.346 23.9073C106.245 22.5464 104.653 21.8679 103.061 21.8679Z" fill="url(#paint2_linear_95_7428)"/>
</g>
<defs>
<linearGradient id="paint0_linear_95_7428" x1="7.87539" y1="-3.11004" x2="103.455" y2="92.8356" gradientUnits="userSpaceOnUse">
<stop stop-color="#0CF1FF"/>
<stop offset="1" stop-color="#009ADD"/>
</linearGradient>
<linearGradient id="paint1_linear_95_7428" x1="76.1743" y1="46.3846" x2="129.747" y2="100.166" gradientUnits="userSpaceOnUse">
<stop stop-color="white"/>
<stop offset="0.15" stop-color="#F6FCFD"/>
<stop offset="0.4" stop-color="#DDF5FA"/>
<stop offset="0.71" stop-color="#B6EAF6"/>
<stop offset="1" stop-color="#8CDEF1"/>
</linearGradient>
<linearGradient id="paint2_linear_95_7428" x1="76.1743" y1="46.3844" x2="129.747" y2="100.166" gradientUnits="userSpaceOnUse">
<stop stop-color="#A3E0FF"/>
<stop offset="0.08" stop-color="#97D7FA"/>
<stop offset="0.51" stop-color="#5EAEE5"/>
<stop offset="0.83" stop-color="#3B95D8"/>
<stop offset="1" stop-color="#2E8CD4"/>
</linearGradient>
</defs>
</svg>
