<svg width="157" height="148" viewBox="0 0 157 148" fill="none" xmlns="http://www.w3.org/2000/svg">
<path d="M156.16 95.4407C156.16 124.449 132.658 147.96 103.662 147.96C74.666 147.96 51.1639 124.449 51.1639 95.4407C51.1639 66.4328 74.666 42.9214 103.662 42.9214C132.658 42.9214 156.16 66.4328 156.16 95.4407Z" fill="url(#paint0_linear_95_7412)"/>
<g opacity="0.45">
<path d="M124.721 62.8027C124.721 28.362 96.8123 0.442383 62.3855 0.442383C27.9586 0.442383 0.0501709 28.362 0.0501709 62.8027C0.0501709 97.2433 27.9586 125.163 62.3855 125.163C96.8123 125.163 124.721 97.2433 124.721 62.8027Z" fill="#96EBFF"/>
</g>
<g style="mix-blend-mode:soft-light" opacity="0.5">
<path style="mix-blend-mode:soft-light" d="M124.721 62.8027C124.721 28.362 96.8123 0.442383 62.3855 0.442383C27.9586 0.442383 0.0501709 28.362 0.0501709 62.8027C0.0501709 97.2433 27.9586 125.163 62.3855 125.163C96.8123 125.163 124.721 97.2433 124.721 62.8027Z" fill="url(#paint1_linear_95_7412)"/>
</g>
<g style="mix-blend-mode:screen" opacity="0.5">
<path style="mix-blend-mode:screen" d="M62.3855 2.0461C95.8703 2.0461 123.113 29.2996 123.113 62.7978C123.113 96.296 95.8703 123.55 62.3855 123.55C28.9007 123.55 1.65325 96.3009 1.65325 62.8027C1.65325 29.3044 28.9007 2.0461 62.3855 2.0461ZM62.3855 0.442383C27.9582 0.442383 0.0501709 28.3616 0.0501709 62.8027C0.0501709 97.2437 27.9582 125.163 62.3855 125.163C96.8127 125.163 124.721 97.2437 124.721 62.8027C124.721 28.3616 96.8127 0.442383 62.3855 0.442383Z" fill="url(#paint2_linear_95_7412)"/>
</g>
<path d="M85.0761 61.3448C87.4127 58.3804 88.7923 54.687 88.7292 50.6971L88.7146 49.7495C88.5737 40.5354 80.8887 33.1048 71.3674 32.6918L71.348 31.4088C71.3042 28.4929 68.7928 26.1651 65.7372 26.2089L64.6733 26.2234C61.6178 26.2672 59.1792 28.663 59.2229 31.5789L59.2423 32.8084L54.2728 32.8764L54.2534 31.6469C54.2096 28.7311 51.6982 26.4032 48.6426 26.447L47.5787 26.4616C44.5232 26.5053 42.0846 28.9012 42.1283 31.817L42.1477 33.0465L39.3205 33.0854H38.8347C35.7791 33.134 33.3405 35.5299 33.3842 38.4457L33.3988 39.4614C33.4425 42.3772 35.954 44.7051 39.0096 44.6613H39.4954L39.6897 57.1703L39.8694 68.7365L40.0832 82.6354H39.5974C36.5418 82.684 34.1032 85.0798 34.1469 87.9957L34.1615 89.0114C34.2052 91.9272 36.7167 94.255 39.7723 94.2113H40.258L43.0853 94.1627V94.2016C43.129 97.1174 45.6405 99.4453 48.696 99.4015L49.7599 99.3869C52.8155 99.3432 55.2541 96.9473 55.2103 94.0315V93.9926L60.175 93.9246V93.9635C60.2187 96.8793 62.7302 99.2071 65.7858 99.1634L66.8496 99.1488C69.9052 99.1051 72.3438 96.7092 72.3001 93.7934V93.7545H72.7616C83.1864 93.6038 91.5176 85.42 91.3621 75.4721L91.3475 74.4662C91.2698 69.2516 88.8458 64.5911 85.0713 61.3497L85.0761 61.3448ZM51.6301 44.4815L54.2048 44.4475L70.4444 44.2191C73.7866 44.1705 76.5458 46.7316 76.5944 49.9196L76.609 50.8672C76.6575 54.0552 73.9809 56.6892 70.6387 56.7329L51.8245 56.9954L51.6301 44.4815ZM79.2468 75.6373C79.3002 79.1898 76.3175 82.1251 72.5916 82.1786L54.7877 82.4264L52.2131 82.4604L51.9993 68.5616L70.8136 68.2991L72.3778 68.2797C76.1038 68.2262 79.1787 71.0789 79.2322 74.6314L79.2468 75.6373Z" fill="white"/>
<defs>
<linearGradient id="paint0_linear_95_7412" x1="66.5389" y1="58.3025" x2="140.815" y2="132.549" gradientUnits="userSpaceOnUse">
<stop stop-color="#0CF1FF"/>
<stop offset="1" stop-color="#009ADD"/>
</linearGradient>
<linearGradient id="paint1_linear_95_7412" x1="18.3058" y1="18.7053" x2="106.496" y2="106.86" gradientUnits="userSpaceOnUse">
<stop stop-color="white"/>
<stop offset="0.15" stop-color="#F6FCFD"/>
<stop offset="0.4" stop-color="#DDF5FA"/>
<stop offset="0.71" stop-color="#B6EAF6"/>
<stop offset="1" stop-color="#8CDEF1"/>
</linearGradient>
<linearGradient id="paint2_linear_95_7412" x1="0.0501709" y1="62.8027" x2="124.721" y2="62.8027" gradientUnits="userSpaceOnUse">
<stop stop-color="#A3E0FF"/>
<stop offset="0.08" stop-color="#97D7FA"/>
<stop offset="0.51" stop-color="#5EAEE5"/>
<stop offset="0.83" stop-color="#3B95D8"/>
<stop offset="1" stop-color="#2E8CD4"/>
</linearGradient>
</defs>
</svg>
