<svg width="112" height="154" viewBox="0 0 112 154" fill="none" xmlns="http://www.w3.org/2000/svg">
<path d="M88.8328 67.5971V149.069C88.8328 152.532 84.8274 154.463 82.1037 152.317L58.6019 133.814C57.0899 132.627 54.962 132.627 53.45 133.814L29.9482 152.317C27.2245 154.463 23.2191 152.527 23.2191 149.069V67.5971C23.2191 63.9394 26.1931 60.9753 29.8631 60.9753H82.1888C85.8588 60.9753 88.8378 63.9394 88.8378 67.5971H88.8328Z" fill="url(#paint0_linear_95_7442)"/>
<g opacity="0.45">
<path d="M111.118 55.384C111.118 25.0568 86.4501 0.47168 56.0209 0.47168C25.5917 0.47168 0.92395 25.0568 0.92395 55.384C0.92395 85.7113 25.5917 110.296 56.0209 110.296C86.4501 110.296 111.118 85.7113 111.118 55.384Z" fill="#96EBFF"/>
</g>
<g style="mix-blend-mode:soft-light" opacity="0.5">
<path style="mix-blend-mode:soft-light" d="M111.118 55.384C111.118 25.0568 86.4501 0.47168 56.0209 0.47168C25.5917 0.47168 0.92395 25.0568 0.92395 55.384C0.92395 85.7113 25.5917 110.296 56.0209 110.296C86.4501 110.296 111.118 85.7113 111.118 55.384Z" fill="url(#paint1_linear_95_7442)"/>
</g>
<g style="mix-blend-mode:screen" opacity="0.5">
<path style="mix-blend-mode:screen" d="M56.0234 2.11848C85.4932 2.11848 109.466 26.0105 109.466 55.3816C109.466 84.7527 85.4932 108.645 56.0234 108.645C26.5536 108.645 2.58119 84.7527 2.58119 55.3816C2.58119 26.0105 26.5536 2.11848 56.0234 2.11848ZM56.0234 0.471787C25.5923 0.471787 0.92395 25.0525 0.92395 55.3816C0.92395 85.7108 25.5923 110.296 56.0234 110.296C86.4545 110.296 111.123 85.7108 111.123 55.3816C111.123 25.0525 86.4545 0.466797 56.0234 0.466797V0.471787Z" fill="url(#paint2_linear_95_7442)"/>
</g>
<path d="M51.1118 78.0963C50.0554 78.0963 48.9939 77.6921 48.1878 76.8887L32.3264 61.0805C30.7092 59.4687 30.7092 56.8589 32.3264 55.2522C33.9436 53.6454 36.5571 53.6454 38.1743 55.2522L51.1118 68.1463L79.8206 39.5337C81.4328 37.9269 84.0513 37.9269 85.6685 39.5337C87.2857 41.1455 87.2857 43.7552 85.6685 45.362L54.0357 76.8887C53.2297 77.6921 52.1732 78.0963 51.1118 78.0963Z" fill="white"/>
<defs>
<linearGradient id="paint0_linear_95_7442" x1="18.0621" y1="69.9873" x2="93.7299" y2="145.909" gradientUnits="userSpaceOnUse">
<stop stop-color="#0CF1FF"/>
<stop offset="1" stop-color="#009ADD"/>
</linearGradient>
<linearGradient id="paint1_linear_95_7442" x1="17.0608" y1="16.5544" x2="94.7195" y2="94.4743" gradientUnits="userSpaceOnUse">
<stop stop-color="white"/>
<stop offset="0.15" stop-color="#F6FCFD"/>
<stop offset="0.4" stop-color="#DDF5FA"/>
<stop offset="0.71" stop-color="#B6EAF6"/>
<stop offset="1" stop-color="#8CDEF1"/>
</linearGradient>
<linearGradient id="paint2_linear_95_7442" x1="0.92395" y1="55.3816" x2="111.118" y2="55.3816" gradientUnits="userSpaceOnUse">
<stop stop-color="#A3E0FF"/>
<stop offset="0.08" stop-color="#97D7FA"/>
<stop offset="0.51" stop-color="#5EAEE5"/>
<stop offset="0.83" stop-color="#3B95D8"/>
<stop offset="1" stop-color="#2E8CD4"/>
</linearGradient>
</defs>
</svg>
