<svg width="28" height="29" viewBox="0 0 28 29" fill="none" xmlns="http://www.w3.org/2000/svg">
<path d="M21.0402 21.3624C24.8508 17.5757 24.8508 11.4361 21.0402 7.64928C17.2297 3.86249 11.0516 3.86249 7.24103 7.64927C3.43049 11.4361 3.43049 17.5757 7.24103 21.3624C11.0516 25.1492 17.2297 25.1492 21.0402 21.3624Z" fill="url(#paint0_linear_142_2712)"/>
<path d="M21.0402 21.3624C24.8508 17.5757 24.8508 11.4361 21.0402 7.64928C17.2297 3.86249 11.0516 3.86249 7.24103 7.64927C3.43049 11.4361 3.43049 17.5757 7.24103 21.3624C11.0516 25.1492 17.2297 25.1492 21.0402 21.3624Z" fill="url(#paint1_linear_142_2712)"/>
<path style="mix-blend-mode:color-dodge" opacity="0.49" d="M21.0402 21.3624C24.8508 17.5757 24.8508 11.4361 21.0402 7.64928C17.2297 3.86249 11.0516 3.86249 7.24103 7.64927C3.43049 11.4361 3.43049 17.5757 7.24103 21.3624C11.0516 25.1492 17.2297 25.1492 21.0402 21.3624Z" fill="url(#paint2_radial_142_2712)"/>
<g style="mix-blend-mode:multiply" opacity="0.31">
<g style="mix-blend-mode:multiply">
<path style="mix-blend-mode:multiply" d="M22.0854 13.8135C21.4279 14.5179 20.4698 14.6073 19.558 14.5001C19.0726 14.4439 18.5872 14.352 18.1069 14.2678C17.5136 14.1631 16.8047 14.0202 16.3244 14.4873C15.9442 14.86 15.8132 15.3934 15.6103 15.8656C15.428 16.2919 15.1686 16.6977 14.8501 17.0372C14.321 17.6038 13.6121 17.8897 12.839 17.8591C11.2132 17.7978 9.76713 16.8126 8.23377 16.3761C7.52745 16.177 6.74151 16.0188 6.0095 16.1796C5.73981 16.2383 5.51379 16.348 5.32629 16.4935C6.23809 20.4957 9.83391 23.4846 14.1386 23.4846C19.1291 23.4846 23.1744 19.4645 23.1744 14.5052C23.1744 13.7803 23.0845 13.0733 22.9227 12.3994C22.7326 12.9201 22.4629 13.4076 22.0828 13.8135H22.0854Z" fill="url(#paint3_linear_142_2712)"/>
</g>
</g>
<g style="mix-blend-mode:multiply" opacity="0.2">
<g style="mix-blend-mode:multiply">
<path style="mix-blend-mode:multiply" d="M22.0854 13.8135C21.4279 14.5179 20.4698 14.6073 19.558 14.5001C19.0726 14.4439 18.5872 14.352 18.1069 14.2678C17.5136 14.1631 16.8047 14.0202 16.3244 14.4873C15.9442 14.86 15.8132 15.3934 15.6103 15.8656C15.428 16.2919 15.1686 16.6977 14.8501 17.0372C14.321 17.6038 13.6121 17.8897 12.839 17.8591C11.2132 17.7978 9.76713 16.8126 8.23377 16.3761C7.52745 16.177 6.74151 16.0188 6.0095 16.1796C5.73981 16.2383 5.51379 16.348 5.32629 16.4935C6.23809 20.4957 9.83391 23.4846 14.1386 23.4846C19.1291 23.4846 23.1744 19.4645 23.1744 14.5052C23.1744 13.7803 23.0845 13.0733 22.9227 12.3994C22.7326 12.9201 22.4629 13.4076 22.0828 13.8135H22.0854Z" fill="url(#paint4_linear_142_2712)"/>
</g>
</g>
<path d="M12.297 5.93407C14.0255 5.60736 15.8517 5.81156 17.4621 6.51092C17.8217 6.66662 18.1864 6.85805 18.4176 7.17455C18.6487 7.49105 18.7104 7.9607 18.4612 8.26444C18.2815 8.48395 17.981 8.57073 17.6959 8.56563C17.4108 8.56052 17.1359 8.47884 16.8585 8.41248C14.8295 7.92497 12.6001 8.3257 10.8741 9.48961C10.4143 9.79845 9.98282 10.1634 9.45886 10.3498C8.9349 10.5361 8.27995 10.4902 7.92036 10.0716C7.60188 9.69891 7.20634 8.68559 8.88867 7.36343C9.86211 6.59771 11.0744 6.16379 12.2944 5.93407H12.297Z" fill="url(#paint5_linear_142_2712)"/>
<path style="mix-blend-mode:overlay" opacity="0.34" d="M13.6558 22.3895C11.113 22.3895 8.82453 21.3226 7.21155 19.615C8.76032 21.611 11.1901 22.8974 13.9229 22.8974C18.3894 22.8974 22.0443 19.4619 22.3705 15.1074C21.6513 19.2424 18.0247 22.3895 13.6583 22.3895H13.6558Z" fill="url(#paint6_linear_142_2712)"/>
<path style="mix-blend-mode:overlay" opacity="0.25" d="M8.71922 19.1885C9.41527 19.6914 10.833 19.6454 11.6858 19.7373C13.0573 19.8853 18.1274 18.2339 19.1753 17.338C19.7301 16.8607 19.8046 16.095 19.7122 15.4237C19.6223 14.7524 19.1265 14.1117 18.4562 13.9918C17.9656 13.9024 17.5161 14.2036 17.0512 14.3823C12.9777 15.9469 8.76802 16.8199 8.54457 16.9194C7.77403 17.2563 8.34423 18.918 8.71922 19.1885V19.1885Z" fill="url(#paint7_linear_142_2712)"/>
<path style="mix-blend-mode:multiply" opacity="0.2" d="M5.8014 11.5543C5.89386 11.2991 6.02742 11.0183 6.2894 10.9341C6.5745 10.8422 6.88271 11.0336 7.05736 11.2761C7.23972 11.5288 7.32962 11.8479 7.30907 12.1567C7.28852 12.4451 7.17808 12.7182 7.06764 12.9863C6.81593 13.5988 6.57706 14.2216 6.30995 14.8291C6.13786 15.2196 5.76544 15.702 5.47263 15.1303C5.24918 14.6938 5.35449 13.9332 5.39301 13.4661C5.44695 12.8152 5.58565 12.1695 5.80653 11.5518L5.8014 11.5543Z" fill="url(#paint8_linear_142_2712)"/>
<path d="M19.2447 8.80276C19.0366 8.82318 18.8466 8.93549 18.7875 9.14734C18.767 9.22136 18.7438 9.26986 18.7464 9.36174C18.7464 9.4179 18.7593 9.48171 18.7747 9.53531C18.7952 9.60933 18.8312 9.66548 18.8723 9.72164L18.8517 9.69356C18.9211 9.78545 18.9776 9.87478 19.0829 9.93604C19.1702 9.98709 19.2704 10.0075 19.3705 10.0101C19.6685 10.0177 19.9125 9.74716 19.9125 9.46129C19.9125 9.10395 19.6248 8.76448 19.2447 8.80276V8.80276Z" fill="url(#paint9_linear_142_2712)"/>
<defs>
<linearGradient id="paint0_linear_142_2712" x1="13.7255" y1="26.7492" x2="14.3622" y2="7.78184" gradientUnits="userSpaceOnUse">
<stop stop-color="#5550FF"/>
<stop offset="1" stop-color="#9BDEFF"/>
</linearGradient>
<linearGradient id="paint1_linear_142_2712" x1="16.6073" y1="25.7869" x2="13.6887" y2="12.2745" gradientUnits="userSpaceOnUse">
<stop stop-color="#BE50FF"/>
<stop offset="0.99" stop-color="#718BFF" stop-opacity="0"/>
</linearGradient>
<radialGradient id="paint2_radial_142_2712" cx="0" cy="0" r="1" gradientUnits="userSpaceOnUse" gradientTransform="translate(14.1416 14.5078) scale(9.73182 9.67115)">
<stop stop-color="#718BFF" stop-opacity="0"/>
<stop offset="0.38" stop-color="#708BFF" stop-opacity="0"/>
<stop offset="0.51" stop-color="#708DFF" stop-opacity="0.03"/>
<stop offset="0.61" stop-color="#6E91FF" stop-opacity="0.08"/>
<stop offset="0.68" stop-color="#6C96FF" stop-opacity="0.15"/>
<stop offset="0.75" stop-color="#6A9DFF" stop-opacity="0.23"/>
<stop offset="0.81" stop-color="#67A5FF" stop-opacity="0.34"/>
<stop offset="0.86" stop-color="#63AFFF" stop-opacity="0.47"/>
<stop offset="0.91" stop-color="#5FBBFF" stop-opacity="0.61"/>
<stop offset="0.95" stop-color="#5BC8FF" stop-opacity="0.78"/>
<stop offset="0.99" stop-color="#56D7FF" stop-opacity="0.96"/>
<stop offset="1" stop-color="#55DAFF"/>
</radialGradient>
<linearGradient id="paint3_linear_142_2712" x1="18.9134" y1="26.9942" x2="12.562" y2="10.3105" gradientUnits="userSpaceOnUse">
<stop stop-color="#BF33FF"/>
<stop offset="0.99" stop-color="#718BFF" stop-opacity="0"/>
</linearGradient>
<linearGradient id="paint4_linear_142_2712" x1="12.9828" y1="12.0574" x2="17.3519" y2="22.0779" gradientUnits="userSpaceOnUse">
<stop stop-color="#BCB0FF"/>
<stop offset="0.99" stop-color="#718BFF" stop-opacity="0"/>
</linearGradient>
<linearGradient id="paint5_linear_142_2712" x1="17.3465" y1="6.0183" x2="7.39417" y2="10.8246" gradientUnits="userSpaceOnUse">
<stop stop-color="#FFFAF5"/>
<stop offset="1" stop-color="#FFFAF5" stop-opacity="0"/>
</linearGradient>
<linearGradient id="paint6_linear_142_2712" x1="22.1213" y1="16.205" x2="4.86098" y2="24.5386" gradientUnits="userSpaceOnUse">
<stop stop-color="#FFFAF5"/>
<stop offset="1" stop-color="#FFFAF5" stop-opacity="0"/>
</linearGradient>
<linearGradient id="paint7_linear_142_2712" x1="21.7891" y1="15.3837" x2="11.6053" y2="17.7302" gradientUnits="userSpaceOnUse">
<stop stop-color="#FFFAF5"/>
<stop offset="1" stop-color="#FFFAF5" stop-opacity="0"/>
</linearGradient>
<linearGradient id="paint8_linear_142_2712" x1="5.68325" y1="15.674" x2="6.89894" y2="10.132" gradientUnits="userSpaceOnUse">
<stop stop-color="#BCB0FF"/>
<stop offset="0.99" stop-color="#718BFF" stop-opacity="0"/>
</linearGradient>
<linearGradient id="paint9_linear_142_2712" x1="20.3979" y1="10.9596" x2="17.8183" y2="7.1287" gradientUnits="userSpaceOnUse">
<stop stop-color="#FFFAF5"/>
<stop offset="1" stop-color="#FFFAF5" stop-opacity="0"/>
</linearGradient>
</defs>
</svg>
