<svg width="26" height="21" viewBox="0 0 26 21" fill="none" xmlns="http://www.w3.org/2000/svg">
<path d="M25.1935 3.31796L22.8615 3.80174L25.1259 1.89962C24.0444 2.10852 22.9629 2.31743 21.8814 2.53732C18.0737 -1.95959 10.3794 1.69072 11.6524 7.39707C10.1653 6.35255 7.57427 6.01171 5.69294 5.1761C3.12441 4.03263 3.39478 2.77921 3.24833 3.37294C2.13304 7.94681 6.17735 11.2673 7.25884 11.3332C6.23368 11.4762 4.23969 10.8055 4.23969 10.8055C4.23969 10.8055 4.23969 13.3123 8.88107 15.4563C6.23368 16.6658 3.21453 17.0396 0.330566 16.5228C9.46688 25.2528 25.0921 17.2705 23.1094 5.03316L25.171 3.31796H25.1935Z" fill="#0DB7E8"/>
</svg>
