<svg width="778" height="533" viewBox="0 0 778 533" fill="none" xmlns="http://www.w3.org/2000/svg">
<path style="mix-blend-mode:screen" d="M37.0625 61.198C37.7528 61.096 38.4334 61.0237 39.1298 60.9631L706.447 4.50723C719.697 3.38165 732.305 7.45953 741.931 15.9861C751.214 24.1963 756.599 35.6218 757.066 48.1408L773.373 482.067C774.241 505.125 757.886 524.378 734.485 527.837C731.931 528.214 729.305 528.391 726.692 528.368L62.9558 521.622C42.8369 521.42 25.5291 503.106 24.3644 480.811L4.72453 105.082C3.58216 83.3207 17.7875 64.0326 37.0605 61.1842L37.0625 61.198ZM36.4543 57.0825C15.138 60.2328 -0.681011 81.2977 0.582879 105.313L20.1931 481.033C21.4732 505.54 40.5144 525.559 62.909 525.792L726.627 532.512C729.509 532.538 732.33 532.347 735.078 531.941C759.983 528.26 778.477 507.35 777.524 481.905L761.218 47.9787C760.14 19.2079 735.334 -2.11862 706.088 0.354952L38.768 56.797C37.9888 56.8698 37.2115 56.9565 36.4384 57.0707L36.4543 57.0825Z" fill="url(#paint0_linear_95_5367)"/>
<defs>
<linearGradient id="paint0_linear_95_5367" x1="-5.0942" y1="107.183" x2="803.628" y2="427.131" gradientUnits="userSpaceOnUse">
<stop stop-color="#56C3F9"/>
<stop offset="0.22" stop-color="#459FD4"/>
<stop offset="0.58" stop-color="#2D689B"/>
<stop offset="0.85" stop-color="#1D4678"/>
<stop offset="1" stop-color="#183A6B"/>
</linearGradient>
</defs>
</svg>
