<svg width="52" height="52" viewBox="0 0 52 52" fill="none" xmlns="http://www.w3.org/2000/svg">
<path d="M7.66159 2.33522H44.0913C47.2783 2.33522 49.8647 4.91198 49.8647 8.08703V44.3809C49.8647 47.5559 47.2783 50.1327 44.0913 50.1327H7.66159C4.47465 50.1327 1.88824 47.5559 1.88824 44.3809V8.08703C1.88824 4.91198 4.47465 2.33522 7.66159 2.33522Z" fill="url(#paint0_linear_219_256)"/>
<g style="mix-blend-mode:soft-light">
<path d="M44.0913 2.33522H7.66159C4.47465 2.33522 1.88824 4.91198 1.88824 8.08703V9.13551C1.88824 5.96046 4.47465 3.3837 7.66159 3.3837H44.0913C47.2783 3.3837 49.8647 5.96046 49.8647 9.13551V8.08703C49.8647 4.91198 47.2783 2.33522 44.0913 2.33522Z" fill="white"/>
</g>
<path d="M44.0913 0.67662H7.66155C3.55897 0.67662 0.223389 3.99976 0.223389 8.08704V44.3809C0.223389 48.4682 3.55897 51.7913 7.66155 51.7913H44.0913C48.1939 51.7913 51.5295 48.4682 51.5295 44.3809V8.08704C51.5295 3.99976 48.1939 0.67662 44.0913 0.67662ZM49.8646 44.3809C49.8646 47.556 47.2782 50.1327 44.0913 50.1327H7.66155C4.47462 50.1327 1.88821 47.556 1.88821 44.3809V8.08704C1.88821 4.91199 4.47462 2.33523 7.66155 2.33523H44.0913C47.2782 2.33523 49.8646 4.91199 49.8646 8.08704V44.3809Z" fill="url(#paint1_linear_219_256)"/>
<path d="M41.5164 16.4762L38.5253 17.0967L41.4297 14.657C40.0425 14.9249 38.6554 15.1928 37.2682 15.4749C32.3842 9.70693 22.515 14.389 24.1479 21.7083C22.2405 20.3685 18.9171 19.9313 16.504 18.8595C13.2094 17.3929 13.5562 15.7852 13.3684 16.5467C11.9379 22.4134 17.1253 26.6724 18.5125 26.757C17.1976 26.9403 14.64 26.0801 14.64 26.0801C14.64 26.0801 14.64 29.2955 20.5932 32.0455C17.1976 33.5968 13.325 34.0763 9.62592 33.4134C21.3446 44.6109 41.3864 34.3724 38.8432 18.6762L41.4875 16.4762H41.5164Z" fill="white"/>
<defs>
<linearGradient id="paint0_linear_219_256" x1="25.8794" y1="3.13491" x2="25.8794" y2="49.3567" gradientUnits="userSpaceOnUse">
<stop stop-color="white" stop-opacity="0.84"/>
<stop offset="0.03" stop-color="white" stop-opacity="0.73"/>
<stop offset="0.05" stop-color="white" stop-opacity="0.65"/>
<stop offset="0.08" stop-color="white" stop-opacity="0.58"/>
<stop offset="0.11" stop-color="white" stop-opacity="0.53"/>
<stop offset="0.16" stop-color="white" stop-opacity="0.51"/>
<stop offset="0.28" stop-color="white" stop-opacity="0.5"/>
<stop offset="0.46" stop-color="#FDFDFD" stop-opacity="0.48"/>
<stop offset="0.67" stop-color="#F9F9F9" stop-opacity="0.43"/>
<stop offset="0.89" stop-color="#F3F3F3" stop-opacity="0.35"/>
<stop offset="1" stop-color="#EFEFEF" stop-opacity="0.3"/>
</linearGradient>
<linearGradient id="paint1_linear_219_256" x1="0.223389" y1="26.231" x2="51.5295" y2="26.231" gradientUnits="userSpaceOnUse">
<stop stop-color="white" stop-opacity="0.9"/>
<stop offset="0.03" stop-color="white" stop-opacity="0.83"/>
<stop offset="0.11" stop-color="white" stop-opacity="0.68"/>
<stop offset="0.17" stop-color="white" stop-opacity="0.58"/>
<stop offset="0.23" stop-color="white" stop-opacity="0.52"/>
<stop offset="0.28" stop-color="white" stop-opacity="0.5"/>
<stop offset="0.46" stop-color="#FDFDFD" stop-opacity="0.48"/>
<stop offset="0.67" stop-color="#F9F9F9" stop-opacity="0.43"/>
<stop offset="0.89" stop-color="#F3F3F3" stop-opacity="0.35"/>
<stop offset="1" stop-color="#EFEFEF" stop-opacity="0.3"/>
</linearGradient>
</defs>
</svg>
